<?xml version="1.0" encoding="UTF-8" standalone="no"?>
<!DOCTYPE svg PUBLIC "-//W3C//DTD SVG 1.1//EN"
 "http://www.w3.org/Graphics/SVG/1.1/DTD/svg11.dtd">
<!-- Generated by graphviz version 2.43.0 (0)
 -->
<!-- Title: %3 Pages: 1 -->
<svg width="422pt" height="244pt"
 viewBox="0.00 0.00 421.50 244.00" xmlns="http://www.w3.org/2000/svg" xmlns:xlink="http://www.w3.org/1999/xlink">
<g id="graph0" class="graph" transform="scale(1 1) rotate(0) translate(4 240)">
<title>%3</title>
<polygon fill="#eeeeee" stroke="transparent" points="-4,4 -4,-240 417.5,-240 417.5,4 -4,4"/>
<!-- Station -->
<g id="node1" class="node">
<title>Station</title>
<g id="a_node1"><a xlink:href="http://Station_details.html" xlink:title="&lt;TABLE&gt;">
<polygon fill="#3f51b5" stroke="transparent" points="8.5,-156 8.5,-175 169.5,-175 169.5,-156 8.5,-156"/>
<polygon fill="none" stroke="black" points="8.5,-156 8.5,-175 169.5,-175 169.5,-156 8.5,-156"/>
<text text-anchor="start" x="68.5" y="-162.4" font-family="Roboto" font-size="12.00" fill="white">Station</text>
<polygon fill="#bbdefb" stroke="transparent" points="8.5,-137 8.5,-156 87.5,-156 87.5,-137 8.5,-137"/>
<polygon fill="none" stroke="black" points="8.5,-137 8.5,-156 87.5,-156 87.5,-137 8.5,-137"/>
<text text-anchor="start" x="22.5" y="-143.4" font-family="Roboto" font-size="12.00">stationid</text>
<polygon fill="#bbdefb" stroke="transparent" points="87.5,-137 87.5,-156 169.5,-156 169.5,-137 87.5,-137"/>
<polygon fill="none" stroke="black" points="87.5,-137 87.5,-156 169.5,-156 169.5,-137 87.5,-137"/>
<text text-anchor="start" x="90.5" y="-143.4" font-family="Roboto" font-size="12.00">INTEGER (PK)</text>
<polygon fill="#bbdefb" stroke="transparent" points="8.5,-118 8.5,-137 87.5,-137 87.5,-118 8.5,-118"/>
<polygon fill="none" stroke="black" points="8.5,-118 8.5,-137 87.5,-137 87.5,-118 8.5,-118"/>
<text text-anchor="start" x="11.5" y="-124.4" font-family="Roboto" font-size="12.00">stationname</text>
<polygon fill="#bbdefb" stroke="transparent" points="87.5,-118 87.5,-137 169.5,-137 169.5,-118 87.5,-118"/>
<polygon fill="none" stroke="black" points="87.5,-118 87.5,-137 169.5,-137 169.5,-118 87.5,-118"/>
<text text-anchor="start" x="96.5" y="-124.4" font-family="Roboto" font-size="12.00">VARCHAR ()</text>
<polygon fill="#bbdefb" stroke="transparent" points="8.5,-99 8.5,-118 87.5,-118 87.5,-99 8.5,-99"/>
<polygon fill="none" stroke="black" points="8.5,-99 8.5,-118 87.5,-118 87.5,-99 8.5,-99"/>
<text text-anchor="start" x="40.5" y="-105.4" font-family="Roboto" font-size="12.00">lat</text>
<polygon fill="#bbdefb" stroke="transparent" points="87.5,-99 87.5,-118 169.5,-118 169.5,-99 87.5,-99"/>
<polygon fill="none" stroke="black" points="87.5,-99 87.5,-118 169.5,-118 169.5,-99 87.5,-99"/>
<text text-anchor="start" x="105.5" y="-105.4" font-family="Roboto" font-size="12.00">FLOAT ()</text>
<polygon fill="#bbdefb" stroke="transparent" points="8.5,-80 8.5,-99 87.5,-99 87.5,-80 8.5,-80"/>
<polygon fill="none" stroke="black" points="8.5,-80 8.5,-99 87.5,-99 87.5,-80 8.5,-80"/>
<text text-anchor="start" x="38.5" y="-86.4" font-family="Roboto" font-size="12.00">lon</text>
<polygon fill="#bbdefb" stroke="transparent" points="87.5,-80 87.5,-99 169.5,-99 169.5,-80 87.5,-80"/>
<polygon fill="none" stroke="black" points="87.5,-80 87.5,-99 169.5,-99 169.5,-80 87.5,-80"/>
<text text-anchor="start" x="105.5" y="-86.4" font-family="Roboto" font-size="12.00">FLOAT ()</text>
<polygon fill="#bbdefb" stroke="transparent" points="8.5,-61 8.5,-80 87.5,-80 87.5,-61 8.5,-61"/>
<polygon fill="none" stroke="black" points="8.5,-61 8.5,-80 87.5,-80 87.5,-61 8.5,-61"/>
<text text-anchor="start" x="33" y="-67.4" font-family="Roboto" font-size="12.00">regio</text>
<polygon fill="#bbdefb" stroke="transparent" points="87.5,-61 87.5,-80 169.5,-80 169.5,-61 87.5,-61"/>
<polygon fill="none" stroke="black" points="87.5,-61 87.5,-80 169.5,-80 169.5,-61 87.5,-61"/>
<text text-anchor="start" x="96.5" y="-67.4" font-family="Roboto" font-size="12.00">VARCHAR ()</text>
</a>
</g>
</g>
<!-- StationMeasurements -->
<g id="node2" class="node">
<title>StationMeasurements</title>
<g id="a_node2"><a xlink:href="http://StationMeasurements_details.html" xlink:title="&lt;TABLE&gt;">
<polygon fill="#3f51b5" stroke="transparent" points="203.5,-213 203.5,-232 405.5,-232 405.5,-213 203.5,-213"/>
<polygon fill="none" stroke="black" points="203.5,-213 203.5,-232 405.5,-232 405.5,-213 203.5,-213"/>
<text text-anchor="start" x="241" y="-219.4" font-family="Roboto" font-size="12.00" fill="white">StationMeasurements</text>
<polygon fill="#bbdefb" stroke="transparent" points="203.5,-194 203.5,-213 323.5,-213 323.5,-194 203.5,-194"/>
<polygon fill="none" stroke="black" points="203.5,-194 203.5,-213 323.5,-213 323.5,-194 203.5,-194"/>
<text text-anchor="start" x="218" y="-200.4" font-family="Roboto" font-size="12.00">measurementid</text>
<polygon fill="#bbdefb" stroke="transparent" points="323.5,-194 323.5,-213 405.5,-213 405.5,-194 323.5,-194"/>
<polygon fill="none" stroke="black" points="323.5,-194 323.5,-213 405.5,-213 405.5,-194 323.5,-194"/>
<text text-anchor="start" x="326.5" y="-200.4" font-family="Roboto" font-size="12.00">INTEGER (PK)</text>
<polygon fill="#bbdefb" stroke="transparent" points="203.5,-175 203.5,-194 323.5,-194 323.5,-175 203.5,-175"/>
<polygon fill="none" stroke="black" points="203.5,-175 203.5,-194 323.5,-194 323.5,-175 203.5,-175"/>
<text text-anchor="start" x="232.5" y="-181.4" font-family="Roboto" font-size="12.00">timestamp</text>
<polygon fill="#bbdefb" stroke="transparent" points="323.5,-175 323.5,-194 405.5,-194 405.5,-175 323.5,-175"/>
<polygon fill="none" stroke="black" points="323.5,-175 323.5,-194 405.5,-194 405.5,-175 323.5,-175"/>
<text text-anchor="start" x="330.5" y="-181.4" font-family="Roboto" font-size="12.00">DATETIME ()</text>
<polygon fill="#bbdefb" stroke="transparent" points="203.5,-156 203.5,-175 323.5,-175 323.5,-156 203.5,-156"/>
<polygon fill="none" stroke="black" points="203.5,-156 203.5,-175 323.5,-175 323.5,-156 203.5,-156"/>
<text text-anchor="start" x="227.5" y="-162.4" font-family="Roboto" font-size="12.00">temperature</text>
<polygon fill="#bbdefb" stroke="transparent" points="323.5,-156 323.5,-175 405.5,-175 405.5,-156 323.5,-156"/>
<polygon fill="none" stroke="black" points="323.5,-156 323.5,-175 405.5,-175 405.5,-156 323.5,-156"/>
<text text-anchor="start" x="341.5" y="-162.4" font-family="Roboto" font-size="12.00">FLOAT ()</text>
<polygon fill="#bbdefb" stroke="transparent" points="203.5,-137 203.5,-156 323.5,-156 323.5,-137 203.5,-137"/>
<polygon fill="none" stroke="black" points="203.5,-137 203.5,-156 323.5,-156 323.5,-137 203.5,-137"/>
<text text-anchor="start" x="206.5" y="-143.4" font-family="Roboto" font-size="12.00">groundtemperature</text>
<polygon fill="#bbdefb" stroke="transparent" points="323.5,-137 323.5,-156 405.5,-156 405.5,-137 323.5,-137"/>
<polygon fill="none" stroke="black" points="323.5,-137 323.5,-156 405.5,-156 405.5,-137 323.5,-137"/>
<text text-anchor="start" x="341.5" y="-143.4" font-family="Roboto" font-size="12.00">FLOAT ()</text>
<polygon fill="#bbdefb" stroke="transparent" points="203.5,-118 203.5,-137 323.5,-137 323.5,-118 203.5,-118"/>
<polygon fill="none" stroke="black" points="203.5,-118 203.5,-137 323.5,-137 323.5,-118 203.5,-118"/>
<text text-anchor="start" x="217" y="-124.4" font-family="Roboto" font-size="12.00">feeltemperature</text>
<polygon fill="#bbdefb" stroke="transparent" points="323.5,-118 323.5,-137 405.5,-137 405.5,-118 323.5,-118"/>
<polygon fill="none" stroke="black" points="323.5,-118 323.5,-137 405.5,-137 405.5,-118 323.5,-118"/>
<text text-anchor="start" x="341.5" y="-124.4" font-family="Roboto" font-size="12.00">FLOAT ()</text>
<polygon fill="#bbdefb" stroke="transparent" points="203.5,-99 203.5,-118 323.5,-118 323.5,-99 203.5,-99"/>
<polygon fill="none" stroke="black" points="203.5,-99 203.5,-118 323.5,-118 323.5,-99 203.5,-99"/>
<text text-anchor="start" x="233.5" y="-105.4" font-family="Roboto" font-size="12.00">windgusts</text>
<polygon fill="#bbdefb" stroke="transparent" points="323.5,-99 323.5,-118 405.5,-118 405.5,-99 323.5,-99"/>
<polygon fill="none" stroke="black" points="323.5,-99 323.5,-118 405.5,-118 405.5,-99 323.5,-99"/>
<text text-anchor="start" x="341.5" y="-105.4" font-family="Roboto" font-size="12.00">FLOAT ()</text>
<polygon fill="#bbdefb" stroke="transparent" points="203.5,-80 203.5,-99 323.5,-99 323.5,-80 203.5,-80"/>
<polygon fill="none" stroke="black" points="203.5,-80 203.5,-99 323.5,-99 323.5,-80 203.5,-80"/>
<text text-anchor="start" x="224" y="-86.4" font-family="Roboto" font-size="12.00">windspeedBft</text>
<polygon fill="#bbdefb" stroke="transparent" points="323.5,-80 323.5,-99 405.5,-99 405.5,-80 323.5,-80"/>
<polygon fill="none" stroke="black" points="323.5,-80 323.5,-99 405.5,-99 405.5,-80 323.5,-80"/>
<text text-anchor="start" x="334" y="-86.4" font-family="Roboto" font-size="12.00">INTEGER ()</text>
<polygon fill="#bbdefb" stroke="transparent" points="203.5,-61 203.5,-80 323.5,-80 323.5,-61 203.5,-61"/>
<polygon fill="none" stroke="black" points="203.5,-61 203.5,-80 323.5,-80 323.5,-61 203.5,-61"/>
<text text-anchor="start" x="238" y="-67.4" font-family="Roboto" font-size="12.00">humidity</text>
<polygon fill="#bbdefb" stroke="transparent" points="323.5,-61 323.5,-80 405.5,-80 405.5,-61 323.5,-61"/>
<polygon fill="none" stroke="black" points="323.5,-61 323.5,-80 405.5,-80 405.5,-61 323.5,-61"/>
<text text-anchor="start" x="334" y="-67.4" font-family="Roboto" font-size="12.00">INTEGER ()</text>
<polygon fill="#bbdefb" stroke="transparent" points="203.5,-42 203.5,-61 323.5,-61 323.5,-42 203.5,-42"/>
<polygon fill="none" stroke="black" points="203.5,-42 203.5,-61 323.5,-61 323.5,-42 203.5,-42"/>
<text text-anchor="start" x="227" y="-48.4" font-family="Roboto" font-size="12.00">precipitation</text>
<polygon fill="#bbdefb" stroke="transparent" points="323.5,-42 323.5,-61 405.5,-61 405.5,-42 323.5,-42"/>
<polygon fill="none" stroke="black" points="323.5,-42 323.5,-61 405.5,-61 405.5,-42 323.5,-42"/>
<text text-anchor="start" x="341.5" y="-48.4" font-family="Roboto" font-size="12.00">FLOAT ()</text>
<polygon fill="#bbdefb" stroke="transparent" points="203.5,-23 203.5,-42 323.5,-42 323.5,-23 203.5,-23"/>
<polygon fill="none" stroke="black" points="203.5,-23 203.5,-42 323.5,-42 323.5,-23 203.5,-23"/>
<text text-anchor="start" x="234.5" y="-29.4" font-family="Roboto" font-size="12.00">sunpower</text>
<polygon fill="#bbdefb" stroke="transparent" points="323.5,-23 323.5,-42 405.5,-42 405.5,-23 323.5,-23"/>
<polygon fill="none" stroke="black" points="323.5,-23 323.5,-42 405.5,-42 405.5,-23 323.5,-23"/>
<text text-anchor="start" x="334" y="-29.4" font-family="Roboto" font-size="12.00">INTEGER ()</text>
<polygon fill="#bbdefb" stroke="transparent" points="203.5,-4 203.5,-23 323.5,-23 323.5,-4 203.5,-4"/>
<polygon fill="none" stroke="black" points="203.5,-4 203.5,-23 323.5,-23 323.5,-4 203.5,-4"/>
<text text-anchor="start" x="238" y="-10.4" font-family="Roboto" font-size="12.00">stationid</text>
<polygon fill="#bbdefb" stroke="transparent" points="323.5,-4 323.5,-23 405.5,-23 405.5,-4 323.5,-4"/>
<polygon fill="none" stroke="black" points="323.5,-4 323.5,-23 405.5,-23 405.5,-4 323.5,-4"/>
<text text-anchor="start" x="334" y="-10.4" font-family="Roboto" font-size="12.00">INTEGER ()</text>
</a>
</g>
</g>
</g>
</svg>
